<svg id="visual" viewBox="0 0 900 600" width="900" height="600" xmlns="http://www.w3.org/2000/svg" xmlns:xlink="http://www.w3.org/1999/xlink" version="1.1"><g stroke-width="1" stroke-linejoin="bevel"><path d="M450.4 292.7L444.6 233.7L409.4 294.3Z" fill="#1c1d25" stroke="#1c1d25"></path><path d="M444.6 233.7L393.4 219L409.4 294.3Z" fill="#000000" stroke="#000000"></path><path d="M393.4 219L331.2 243.7L409.4 294.3Z" fill="#13141c" stroke="#13141c"></path><path d="M409.4 294.3L459.6 346.3L450.4 292.7Z" fill="#1c1d25" stroke="#1c1d25"></path><path d="M557.8 233.7L498.6 173L444.6 233.7Z" fill="#0a0c16" stroke="#0a0c16"></path><path d="M331.2 243.7L363.2 334.3L409.4 294.3Z" fill="#13141c" stroke="#13141c"></path><path d="M409.4 294.3L397.4 383L459.6 346.3Z" fill="#11121a" stroke="#11121a"></path><path d="M362.2 215L331.2 243.7L393.4 219Z" fill="#060813" stroke="#060813"></path><path d="M557.8 233.7L444.6 233.7L450.4 292.7Z" fill="#0a0c16" stroke="#0a0c16"></path><path d="M444.6 233.7L431.4 111.3L393.4 219Z" fill="#020310" stroke="#020310"></path><path d="M393.4 219L330.2 170.3L362.2 215Z" fill="#0e0f18" stroke="#0e0f18"></path><path d="M363.2 334.3L397.4 383L409.4 294.3Z" fill="#0a0c16" stroke="#0a0c16"></path><path d="M331.2 243.7L309.9 321.3L363.2 334.3Z" fill="#0e0f18" stroke="#0e0f18"></path><path d="M363.2 334.3L383.2 410L397.4 383Z" fill="#16171e" stroke="#16171e"></path><path d="M556.8 302.3L557.8 233.7L450.4 292.7Z" fill="#1a1b23" stroke="#1a1b23"></path><path d="M490.6 405L556.8 302.3L459.6 346.3Z" fill="#11121a" stroke="#11121a"></path><path d="M459.6 346.3L556.8 302.3L450.4 292.7Z" fill="#0a0c16" stroke="#0a0c16"></path><path d="M431.4 111.3L330.2 170.3L393.4 219Z" fill="#1c1d25" stroke="#1c1d25"></path><path d="M362.2 215L330.2 170.3L331.2 243.7Z" fill="#020310" stroke="#020310"></path><path d="M331.2 243.7L244.9 243.7L309.9 321.3Z" fill="#16171e" stroke="#16171e"></path><path d="M262.9 361L383.2 410L363.2 334.3Z" fill="#020310" stroke="#020310"></path><path d="M397.4 383L490.6 405L459.6 346.3Z" fill="#000000" stroke="#000000"></path><path d="M383.2 410L490.6 405L397.4 383Z" fill="#0a0c16" stroke="#0a0c16"></path><path d="M498.6 173L431.4 111.3L444.6 233.7Z" fill="#000000" stroke="#000000"></path><path d="M617.1 365.3L584.1 291.7L556.8 302.3Z" fill="#0a0c16" stroke="#0a0c16"></path><path d="M556.8 302.3L584.1 291.7L557.8 233.7Z" fill="#1a1b23" stroke="#1a1b23"></path><path d="M557.8 233.7L567.8 167L498.6 173Z" fill="#11121a" stroke="#11121a"></path><path d="M498.6 173L509.6 101.3L431.4 111.3Z" fill="#0a0c16" stroke="#0a0c16"></path><path d="M606.1 187L567.8 167L557.8 233.7Z" fill="#020310" stroke="#020310"></path><path d="M288.9 134.3L257.9 212L330.2 170.3Z" fill="#13141c" stroke="#13141c"></path><path d="M330.2 170.3L257.9 212L331.2 243.7Z" fill="#13141c" stroke="#13141c"></path><path d="M567.8 167L509.6 101.3L498.6 173Z" fill="#13141c" stroke="#13141c"></path><path d="M257.9 212L244.9 243.7L331.2 243.7Z" fill="#000000" stroke="#000000"></path><path d="M309.9 321.3L262.9 361L363.2 334.3Z" fill="#020310" stroke="#020310"></path><path d="M351.2 39.7L288.9 134.3L330.2 170.3Z" fill="#0e0f18" stroke="#0e0f18"></path><path d="M257.9 212L229.7 198L244.9 243.7Z" fill="#181921" stroke="#181921"></path><path d="M240.7 326.3L262.9 361L309.9 321.3Z" fill="#1a1b23" stroke="#1a1b23"></path><path d="M656.3 273.7L606.1 187L557.8 233.7Z" fill="#020310" stroke="#020310"></path><path d="M567.8 167L589.8 129.3L509.6 101.3Z" fill="#13141c" stroke="#13141c"></path><path d="M244.9 243.7L240.7 326.3L309.9 321.3Z" fill="#0e0f18" stroke="#0e0f18"></path><path d="M509.6 101.3L451.4 66.7L431.4 111.3Z" fill="#13141c" stroke="#13141c"></path><path d="M431.4 111.3L351.2 39.7L330.2 170.3Z" fill="#16171e" stroke="#16171e"></path><path d="M288.9 134.3L229.7 198L257.9 212Z" fill="#16171e" stroke="#16171e"></path><path d="M244.9 243.7L187.7 267.7L240.7 326.3Z" fill="#0a0c16" stroke="#0a0c16"></path><path d="M606.1 187L589.8 129.3L567.8 167Z" fill="#0e0f18" stroke="#0e0f18"></path><path d="M509.6 101.3L514.6 42.7L451.4 66.7Z" fill="#060813" stroke="#060813"></path><path d="M490.6 405L617.1 365.3L556.8 302.3Z" fill="#0a0c16" stroke="#0a0c16"></path><path d="M584.1 291.7L656.3 273.7L557.8 233.7Z" fill="#060813" stroke="#060813"></path><path d="M669.3 171.3L591.1 122.3L589.8 129.3Z" fill="#1c1d25" stroke="#1c1d25"></path><path d="M589.8 129.3L591.1 122.3L509.6 101.3Z" fill="#11121a" stroke="#11121a"></path><path d="M262.9 361L328.2 460.7L383.2 410Z" fill="#060813" stroke="#060813"></path><path d="M452.4 502.7L488.6 479.7L490.6 405Z" fill="#000000" stroke="#000000"></path><path d="M490.6 405L590.8 435L617.1 365.3Z" fill="#16171e" stroke="#16171e"></path><path d="M452.4 502.7L490.6 405L383.2 410Z" fill="#1c1d25" stroke="#1c1d25"></path><path d="M617.1 365.3L656.3 273.7L584.1 291.7Z" fill="#11121a" stroke="#11121a"></path><path d="M606.1 187L669.3 171.3L589.8 129.3Z" fill="#0e0f18" stroke="#0e0f18"></path><path d="M577.8 450.7L590.8 435L490.6 405Z" fill="#020310" stroke="#020310"></path><path d="M617.1 365.3L708.3 302.3L656.3 273.7Z" fill="#0a0c16" stroke="#0a0c16"></path><path d="M488.6 479.7L577.8 450.7L490.6 405Z" fill="#1c1d25" stroke="#1c1d25"></path><path d="M451.4 66.7L351.2 39.7L431.4 111.3Z" fill="#181921" stroke="#181921"></path><path d="M288.9 134.3L203.7 156.3L229.7 198Z" fill="#0a0c16" stroke="#0a0c16"></path><path d="M568.8 47.7L514.6 42.7L509.6 101.3Z" fill="#13141c" stroke="#13141c"></path><path d="M451.4 66.7L422.4 0L351.2 39.7Z" fill="#020310" stroke="#020310"></path><path d="M410.4 520.3L452.4 502.7L383.2 410Z" fill="#11121a" stroke="#11121a"></path><path d="M488.6 479.7L548.8 560.3L577.8 450.7Z" fill="#1c1d25" stroke="#1c1d25"></path><path d="M229.7 198L187.7 267.7L244.9 243.7Z" fill="#16171e" stroke="#16171e"></path><path d="M240.7 326.3L191.7 390L262.9 361Z" fill="#181921" stroke="#181921"></path><path d="M262.9 361L266.9 481.7L328.2 460.7Z" fill="#0e0f18" stroke="#0e0f18"></path><path d="M351.2 39.7L247.9 94.7L288.9 134.3Z" fill="#181921" stroke="#181921"></path><path d="M229.7 198L164.5 225L187.7 267.7Z" fill="#060813" stroke="#060813"></path><path d="M247.9 94.7L203.7 156.3L288.9 134.3Z" fill="#1a1b23" stroke="#1a1b23"></path><path d="M663.3 479.7L627.1 421L590.8 435Z" fill="#11121a" stroke="#11121a"></path><path d="M590.8 435L627.1 421L617.1 365.3Z" fill="#16171e" stroke="#16171e"></path><path d="M328.2 460.7L410.4 520.3L383.2 410Z" fill="#11121a" stroke="#11121a"></path><path d="M452.4 502.7L476.6 549.3L488.6 479.7Z" fill="#0e0f18" stroke="#0e0f18"></path><path d="M756.5 225L674.3 188L656.3 273.7Z" fill="#16171e" stroke="#16171e"></path><path d="M656.3 273.7L674.3 188L606.1 187Z" fill="#000000" stroke="#000000"></path><path d="M591.1 122.3L568.8 47.7L509.6 101.3Z" fill="#13141c" stroke="#13141c"></path><path d="M674.3 188L669.3 171.3L606.1 187Z" fill="#16171e" stroke="#16171e"></path><path d="M662.1 91.7L568.8 47.7L591.1 122.3Z" fill="#1c1d25" stroke="#1c1d25"></path><path d="M514.6 42.7L422.4 0L451.4 66.7Z" fill="#0a0c16" stroke="#0a0c16"></path><path d="M351.2 39.7L278.9 0L247.9 94.7Z" fill="#181921" stroke="#181921"></path><path d="M517.6 0L422.4 0L514.6 42.7Z" fill="#0e0f18" stroke="#0e0f18"></path><path d="M203.7 156.3L164.5 225L229.7 198Z" fill="#11121a" stroke="#11121a"></path><path d="M150.5 347.3L191.7 390L240.7 326.3Z" fill="#181921" stroke="#181921"></path><path d="M328.2 460.7L334.2 533.3L410.4 520.3Z" fill="#16171e" stroke="#16171e"></path><path d="M150.5 347.3L240.7 326.3L187.7 267.7Z" fill="#000000" stroke="#000000"></path><path d="M191.7 390L266.9 481.7L262.9 361Z" fill="#0a0c16" stroke="#0a0c16"></path><path d="M422.4 0L361.2 0L351.2 39.7Z" fill="#1a1b23" stroke="#1a1b23"></path><path d="M559.8 0L517.6 0L514.6 42.7Z" fill="#020310" stroke="#020310"></path><path d="M723.3 415L708.3 302.3L617.1 365.3Z" fill="#0a0c16" stroke="#0a0c16"></path><path d="M266.9 481.7L334.2 533.3L328.2 460.7Z" fill="#060813" stroke="#060813"></path><path d="M453.4 600L476.6 549.3L410.4 520.3Z" fill="#000000" stroke="#000000"></path><path d="M410.4 520.3L476.6 549.3L452.4 502.7Z" fill="#1a1b23" stroke="#1a1b23"></path><path d="M577.8 450.7L663.3 479.7L590.8 435Z" fill="#11121a" stroke="#11121a"></path><path d="M106.2 330.3L150.5 347.3L187.7 267.7Z" fill="#000000" stroke="#000000"></path><path d="M221.7 487.7L256.9 512.3L266.9 481.7Z" fill="#0a0c16" stroke="#0a0c16"></path><path d="M669.3 171.3L662.1 91.7L591.1 122.3Z" fill="#11121a" stroke="#11121a"></path><path d="M568.8 47.7L559.8 0L514.6 42.7Z" fill="#0a0c16" stroke="#0a0c16"></path><path d="M757.5 136.3L662.1 91.7L669.3 171.3Z" fill="#1c1d25" stroke="#1c1d25"></path><path d="M757.5 136.3L669.3 171.3L674.3 188Z" fill="#0a0c16" stroke="#0a0c16"></path><path d="M595.1 0L559.8 0L568.8 47.7Z" fill="#0e0f18" stroke="#0e0f18"></path><path d="M221.7 487.7L266.9 481.7L191.7 390Z" fill="#16171e" stroke="#16171e"></path><path d="M266.9 481.7L256.9 512.3L334.2 533.3Z" fill="#1a1b23" stroke="#1a1b23"></path><path d="M177.5 462.7L221.7 487.7L191.7 390Z" fill="#16171e" stroke="#16171e"></path><path d="M361.2 0L278.9 0L351.2 39.7Z" fill="#0a0c16" stroke="#0a0c16"></path><path d="M247.9 94.7L166.5 61.7L203.7 156.3Z" fill="#181921" stroke="#181921"></path><path d="M90.2 205L110.5 230.7L164.5 225Z" fill="#0a0c16" stroke="#0a0c16"></path><path d="M657.3 29.7L595.1 0L568.8 47.7Z" fill="#13141c" stroke="#13141c"></path><path d="M723.3 415L741.5 297.3L708.3 302.3Z" fill="#000000" stroke="#000000"></path><path d="M708.3 302.3L756.5 225L656.3 273.7Z" fill="#000000" stroke="#000000"></path><path d="M221.7 487.7L246.7 524.3L256.9 512.3Z" fill="#0a0c16" stroke="#0a0c16"></path><path d="M256.9 512.3L246.7 524.3L334.2 533.3Z" fill="#11121a" stroke="#11121a"></path><path d="M520.8 600L548.8 560.3L476.6 549.3Z" fill="#16171e" stroke="#16171e"></path><path d="M649.1 505.7L663.3 479.7L577.8 450.7Z" fill="#020310" stroke="#020310"></path><path d="M627.1 421L723.3 415L617.1 365.3Z" fill="#020310" stroke="#020310"></path><path d="M453.4 600L410.4 520.3L367.2 600Z" fill="#11121a" stroke="#11121a"></path><path d="M476.6 549.3L548.8 560.3L488.6 479.7Z" fill="#16171e" stroke="#16171e"></path><path d="M221.7 487.7L167.5 512.3L246.7 524.3Z" fill="#181921" stroke="#181921"></path><path d="M117.5 417L177.5 462.7L191.7 390Z" fill="#181921" stroke="#181921"></path><path d="M134.5 102.3L164.5 225L203.7 156.3Z" fill="#1a1b23" stroke="#1a1b23"></path><path d="M164.5 225L110.5 230.7L187.7 267.7Z" fill="#11121a" stroke="#11121a"></path><path d="M150.5 347.3L117.5 417L191.7 390Z" fill="#11121a" stroke="#11121a"></path><path d="M278.9 0L192.7 40.7L247.9 94.7Z" fill="#020310" stroke="#020310"></path><path d="M613.1 543.3L649.1 505.7L577.8 450.7Z" fill="#020310" stroke="#020310"></path><path d="M729.3 0L657.3 29.7L662.1 91.7Z" fill="#020310" stroke="#020310"></path><path d="M662.1 91.7L657.3 29.7L568.8 47.7Z" fill="#060813" stroke="#060813"></path><path d="M110.5 230.7L106.2 330.3L187.7 267.7Z" fill="#0e0f18" stroke="#0e0f18"></path><path d="M741.5 297.3L756.5 225L708.3 302.3Z" fill="#000000" stroke="#000000"></path><path d="M709.3 499.3L723.3 415L663.3 479.7Z" fill="#1c1d25" stroke="#1c1d25"></path><path d="M663.3 479.7L723.3 415L627.1 421Z" fill="#1c1d25" stroke="#1c1d25"></path><path d="M741.5 297.3L783.5 292.7L756.5 225Z" fill="#1c1d25" stroke="#1c1d25"></path><path d="M192.7 40.7L166.5 61.7L247.9 94.7Z" fill="#16171e" stroke="#16171e"></path><path d="M548.8 560.3L613.1 543.3L577.8 450.7Z" fill="#060813" stroke="#060813"></path><path d="M367.2 600L410.4 520.3L334.2 533.3Z" fill="#0a0c16" stroke="#0a0c16"></path><path d="M548.8 560.3L632.1 600L613.1 543.3Z" fill="#0a0c16" stroke="#0a0c16"></path><path d="M166.5 61.7L134.5 102.3L203.7 156.3Z" fill="#060813" stroke="#060813"></path><path d="M453.4 600L479.6 600L476.6 549.3Z" fill="#020310" stroke="#020310"></path><path d="M291.9 600L367.2 600L334.2 533.3Z" fill="#11121a" stroke="#11121a"></path><path d="M134.5 102.3L90.2 205L164.5 225Z" fill="#13141c" stroke="#13141c"></path><path d="M110.5 230.7L41.2 286.7L106.2 330.3Z" fill="#000000" stroke="#000000"></path><path d="M106.2 330.3L117.5 417L150.5 347.3Z" fill="#060813" stroke="#060813"></path><path d="M177.5 462.7L167.5 512.3L221.7 487.7Z" fill="#181921" stroke="#181921"></path><path d="M479.6 600L520.8 600L476.6 549.3Z" fill="#060813" stroke="#060813"></path><path d="M756.5 225L757.5 136.3L674.3 188Z" fill="#060813" stroke="#060813"></path><path d="M103.5 0L73.2 109.3L134.5 102.3Z" fill="#020310" stroke="#020310"></path><path d="M192.7 40.7L193.7 0L166.5 61.7Z" fill="#181921" stroke="#181921"></path><path d="M278.9 0L193.7 0L192.7 40.7Z" fill="#16171e" stroke="#16171e"></path><path d="M780.5 396L783.5 292.7L741.5 297.3Z" fill="#020310" stroke="#020310"></path><path d="M756.5 225L830.8 166L757.5 136.3Z" fill="#181921" stroke="#181921"></path><path d="M105.2 435.7L167.5 512.3L177.5 462.7Z" fill="#000000" stroke="#000000"></path><path d="M246.7 524.3L291.9 600L334.2 533.3Z" fill="#13141c" stroke="#13141c"></path><path d="M172.7 600L291.9 600L246.7 524.3Z" fill="#000000" stroke="#000000"></path><path d="M649.1 505.7L709.3 499.3L663.3 479.7Z" fill="#0a0c16" stroke="#0a0c16"></path><path d="M723.3 415L780.5 396L741.5 297.3Z" fill="#060813" stroke="#060813"></path><path d="M721.5 572.3L709.3 499.3L649.1 505.7Z" fill="#13141c" stroke="#13141c"></path><path d="M632.1 600L649.1 505.7L613.1 543.3Z" fill="#060813" stroke="#060813"></path><path d="M117.5 417L105.2 435.7L177.5 462.7Z" fill="#1a1b23" stroke="#1a1b23"></path><path d="M65.2 376L105.2 435.7L117.5 417Z" fill="#060813" stroke="#060813"></path><path d="M65.2 376L117.5 417L106.2 330.3Z" fill="#0a0c16" stroke="#0a0c16"></path><path d="M760.5 476.7L780.5 396L723.3 415Z" fill="#000000" stroke="#000000"></path><path d="M41.2 286.7L65.2 376L106.2 330.3Z" fill="#16171e" stroke="#16171e"></path><path d="M134.5 102.3L73.2 109.3L90.2 205Z" fill="#13141c" stroke="#13141c"></path><path d="M90.2 205L41.2 286.7L110.5 230.7Z" fill="#181921" stroke="#181921"></path><path d="M103.5 0L134.5 102.3L166.5 61.7Z" fill="#060813" stroke="#060813"></path><path d="M0 300.7L41.2 286.7L0 214Z" fill="#13141c" stroke="#13141c"></path><path d="M520.8 600L632.1 600L548.8 560.3Z" fill="#181921" stroke="#181921"></path><path d="M721.5 572.3L760.5 476.7L709.3 499.3Z" fill="#1a1b23" stroke="#1a1b23"></path><path d="M709.3 499.3L760.5 476.7L723.3 415Z" fill="#11121a" stroke="#11121a"></path><path d="M782.5 27.7L729.3 0L662.1 91.7Z" fill="#11121a" stroke="#11121a"></path><path d="M657.3 29.7L729.3 0L595.1 0Z" fill="#020310" stroke="#020310"></path><path d="M783.5 292.7L833.8 239.7L756.5 225Z" fill="#020310" stroke="#020310"></path><path d="M757.5 136.3L782.5 27.7L662.1 91.7Z" fill="#16171e" stroke="#16171e"></path><path d="M900 300.7L833.8 239.7L783.5 292.7Z" fill="#0e0f18" stroke="#0e0f18"></path><path d="M863.8 372.3L783.5 292.7L780.5 396Z" fill="#16171e" stroke="#16171e"></path><path d="M833.8 239.7L830.8 166L756.5 225Z" fill="#0e0f18" stroke="#0e0f18"></path><path d="M810.8 514.3L791.8 466.7L760.5 476.7Z" fill="#181921" stroke="#181921"></path><path d="M760.5 476.7L791.8 466.7L780.5 396Z" fill="#020310" stroke="#020310"></path><path d="M193.7 0L103.5 0L166.5 61.7Z" fill="#181921" stroke="#181921"></path><path d="M140.5 600L167.5 512.3L70.2 536.3Z" fill="#0e0f18" stroke="#0e0f18"></path><path d="M140.5 600L172.7 600L167.5 512.3Z" fill="#16171e" stroke="#16171e"></path><path d="M167.5 512.3L172.7 600L246.7 524.3Z" fill="#16171e" stroke="#16171e"></path><path d="M632.1 600L721.5 572.3L649.1 505.7Z" fill="#13141c" stroke="#13141c"></path><path d="M822.8 65.7L782.5 27.7L757.5 136.3Z" fill="#11121a" stroke="#11121a"></path><path d="M833.8 239.7L844.8 158.3L830.8 166Z" fill="#020310" stroke="#020310"></path><path d="M830.8 166L822.8 65.7L757.5 136.3Z" fill="#16171e" stroke="#16171e"></path><path d="M41.2 286.7L0 347.3L65.2 376Z" fill="#020310" stroke="#020310"></path><path d="M65.2 376L0 430.7L105.2 435.7Z" fill="#020310" stroke="#020310"></path><path d="M0 214L41.2 286.7L90.2 205Z" fill="#1c1d25" stroke="#1c1d25"></path><path d="M0 214L90.2 205L0 164.3Z" fill="#0a0c16" stroke="#0a0c16"></path><path d="M0 164.3L90.2 205L73.2 109.3Z" fill="#16171e" stroke="#16171e"></path><path d="M0 300.7L0 347.3L41.2 286.7Z" fill="#060813" stroke="#060813"></path><path d="M0 43.7L0 164.3L73.2 109.3Z" fill="#1a1b23" stroke="#1a1b23"></path><path d="M844.8 158.3L822.8 65.7L830.8 166Z" fill="#181921" stroke="#181921"></path><path d="M70.2 536.3L167.5 512.3L105.2 435.7Z" fill="#1c1d25" stroke="#1c1d25"></path><path d="M632.1 600L720.3 600L721.5 572.3Z" fill="#060813" stroke="#060813"></path><path d="M721.5 572.3L810.8 514.3L760.5 476.7Z" fill="#181921" stroke="#181921"></path><path d="M807.8 0L785.5 0L782.5 27.7Z" fill="#181921" stroke="#181921"></path><path d="M782.5 27.7L785.5 0L729.3 0Z" fill="#1c1d25" stroke="#1c1d25"></path><path d="M0 347.3L0 390L65.2 376Z" fill="#181921" stroke="#181921"></path><path d="M851.8 423L780.5 396L791.8 466.7Z" fill="#11121a" stroke="#11121a"></path><path d="M851.8 423L863.8 372.3L780.5 396Z" fill="#020310" stroke="#020310"></path><path d="M833.8 239.7L900 179L844.8 158.3Z" fill="#1c1d25" stroke="#1c1d25"></path><path d="M103.5 0L39.2 40.7L73.2 109.3Z" fill="#0a0c16" stroke="#0a0c16"></path><path d="M0 430.7L70.2 536.3L105.2 435.7Z" fill="#11121a" stroke="#11121a"></path><path d="M810.8 514.3L851.8 423L791.8 466.7Z" fill="#13141c" stroke="#13141c"></path><path d="M792.5 600L810.8 514.3L721.5 572.3Z" fill="#0a0c16" stroke="#0a0c16"></path><path d="M0 390L0 430.7L65.2 376Z" fill="#000000" stroke="#000000"></path><path d="M900 0L807.8 0L822.8 65.7Z" fill="#11121a" stroke="#11121a"></path><path d="M822.8 65.7L807.8 0L782.5 27.7Z" fill="#020310" stroke="#020310"></path><path d="M103.5 0L42.2 0L39.2 40.7Z" fill="#0e0f18" stroke="#0e0f18"></path><path d="M39.2 40.7L0 43.7L73.2 109.3Z" fill="#11121a" stroke="#11121a"></path><path d="M0 600L97.2 600L70.2 536.3Z" fill="#020310" stroke="#020310"></path><path d="M70.2 536.3L97.2 600L140.5 600Z" fill="#11121a" stroke="#11121a"></path><path d="M900 361.3L900 300.7L863.8 372.3Z" fill="#13141c" stroke="#13141c"></path><path d="M863.8 372.3L900 300.7L783.5 292.7Z" fill="#11121a" stroke="#11121a"></path><path d="M844.8 158.3L900 97.3L822.8 65.7Z" fill="#181921" stroke="#181921"></path><path d="M900 300.7L900 179L833.8 239.7Z" fill="#000000" stroke="#000000"></path><path d="M900 429L900 361.3L863.8 372.3Z" fill="#060813" stroke="#060813"></path><path d="M900 429L863.8 372.3L851.8 423Z" fill="#060813" stroke="#060813"></path><path d="M0 0L0 43.7L39.2 40.7Z" fill="#11121a" stroke="#11121a"></path><path d="M720.3 600L792.5 600L721.5 572.3Z" fill="#11121a" stroke="#11121a"></path><path d="M900 482.7L900 429L851.8 423Z" fill="#0a0c16" stroke="#0a0c16"></path><path d="M0 430.7L0 518.3L70.2 536.3Z" fill="#0e0f18" stroke="#0e0f18"></path><path d="M900 482.7L851.8 423L810.8 514.3Z" fill="#020310" stroke="#020310"></path><path d="M900 179L900 97.3L844.8 158.3Z" fill="#020310" stroke="#020310"></path><path d="M42.2 0L0 0L39.2 40.7Z" fill="#181921" stroke="#181921"></path><path d="M900 97.3L900 63.7L822.8 65.7Z" fill="#020310" stroke="#020310"></path><path d="M900 544.3L900 482.7L810.8 514.3Z" fill="#1a1b23" stroke="#1a1b23"></path><path d="M792.5 600L826.8 600L810.8 514.3Z" fill="#181921" stroke="#181921"></path><path d="M900 63.7L900 0L822.8 65.7Z" fill="#1a1b23" stroke="#1a1b23"></path><path d="M0 518.3L0 600L70.2 536.3Z" fill="#1a1b23" stroke="#1a1b23"></path><path d="M826.8 600L900 544.3L810.8 514.3Z" fill="#11121a" stroke="#11121a"></path><path d="M826.8 600L900 600L900 544.3Z" fill="#020310" stroke="#020310"></path></g></svg>